<?xml version="1.0" encoding="UTF-8"?>
<svg id="Layer_2" data-name="Layer 2" xmlns="http://www.w3.org/2000/svg" viewBox="0 0 335.17 146.25">
  <defs>
    <style>
      .cls-1 {
        fill: #3c466b;
      }

      .cls-1, .cls-2 {
        stroke-width: 0px;
      }

      .cls-2 {
        fill: #febb12;
      }
    </style>
  </defs>
  <g id="Layer_1-2" data-name="Layer 1">
    <g>
      <path class="cls-2" d="M39.91,44.72c-2.59,0-7.9-5.32-7.9-7.9,0-2.44,5.32-7.76,7.9-7.76s7.9,5.32,7.9,7.76c0,2.59-5.32,7.9-7.9,7.9Z"/>
      <g>
        <path class="cls-1" d="M23.25,30.12l14.46,61.33h3.89l14.46-61.33c.54-2.31,2.61-3.94,4.98-3.94h18.27l-29.76,120.07h-22.15l9.3-35.51h-15.9L0,26.18h18.27c2.37,0,4.44,1.63,4.98,3.94Z"/>
        <g>
          <path class="cls-1" d="M335.17,36.47l-.42,11.07c-.14,3.7-3.34,6.55-7.03,6.24-4.28-.36-9.61-.73-13.01-.73-16.23,0-19.28,6.26-19.28,23.17,0,18.94,3.21,24.86,19.45,24.86,3.38,0,8.62-.37,12.83-.73,3.7-.31,6.9,2.53,7.04,6.24l.42,11.23s-18.09,3.55-27.56,3.55c-25.2,0-35.18-13.36-35.18-45.15,0-29.93,10.48-43.46,35.68-43.46,9.81,0,27.06,3.72,27.06,3.72Z"/>
          <g>
            <path class="cls-1" d="M162.62,119.74h-22.75v-3.59s-11.97,5.65-20.7,5.65c-25.83,0-33.35-15.05-33.35-45.16s12.14-44.47,35.41-44.47c6.33,0,18.47,2.39,18.47,2.39V15.55c0-8.59,6.96-15.55,15.55-15.55h7.37v119.74ZM139.69,88.08v-25.29c0-5.37-4.08-9.85-9.42-10.38-2.41-.24-4.98-.42-7.34-.42-8.55,0-13.86,7.36-13.86,24.63s3.25,24.63,14.03,24.63c1.71,0,3.43-.12,5.1-.3,6.55-.72,11.49-6.29,11.49-12.89Z"/>
            <path class="cls-1" d="M258.06,76.8c0,26.34-9.58,44.99-39.34,44.99s-39.34-18.64-39.34-44.99,9.58-44.64,39.34-44.64,39.34,18.3,39.34,44.64ZM234.8,76.8c0-16.59-3.42-25.14-16.08-25.14s-16.08,8.55-16.08,25.14,3.42,25.49,16.08,25.49,16.08-8.89,16.08-25.49Z"/>
          </g>
        </g>
      </g>
    </g>
  </g>
</svg>